<svg data-v-423bf9ae="" xmlns="http://www.w3.org/2000/svg" viewBox="0 0 NaN NaN" class="iconAbove"><!----><!----><!----><g data-v-423bf9ae="" id="9aa1dd96-afe7-4b8f-8fed-79c9cd34ca07" fill="#ffffff" transform="matrix(Infinity,0,0,Infinity,0,0)"><path d=""></path></g><defs data-v-423bf9ae=""><linearGradient data-v-423bf9ae="" gradientTransform="rotate(25)" id="1596b984-9024-4cfe-bffc-5e529aac0f18" x1="0%" y1="0%" x2="100%" y2="0%"><stop data-v-423bf9ae="" offset="0%" style="stop-color: rgb(63, 193, 201); stop-opacity: 1;"></stop><stop data-v-423bf9ae="" offset="100%" style="stop-color: rgb(252, 81, 133); stop-opacity: 1;"></stop></linearGradient></defs><g data-v-423bf9ae="" id="05a73899-e178-41e5-bed0-db6c7823b764" transform="matrix(1.0967317867280029,0,0,1.0967317867280029,-4.352930771762608,-3.3839284713020135)" stroke="none" fill="url(#1596b984-9024-4cfe-bffc-5e529aac0f18)"><path d="M38.182 57.753L20.18 47.91v-5.455l18.002-9.803v6.422l-12.557 6.039 12.557 6.266zM39.848 62.08l6.503-34.162h3.785L43.56 62.08zM51.8 57.78V51.4l12.572-6.219L51.8 39.028v-6.332L69.82 42.5v5.41z"></path><path d="M44.999 86.031L9.465 65.517V24.484L44.999 3.969l35.536 20.516v41.029L44.999 86.031zM13.07 63.434l31.929 18.434L76.93 63.434V26.566L44.999 8.131 13.07 26.565v36.869z"></path></g><!----></svg>